<?xml version="1.0" encoding="UTF-8"?>
<svg id="Capa_1" data-name="Capa 1" xmlns="http://www.w3.org/2000/svg" viewBox="0 0 35.01 55.98">
  <defs>
    <style>
      .cls-1 {
        fill: #121268;
        stroke-width: 0px;
      }
    </style>
  </defs>
  <path class="cls-1" d="m12.13,8.88h10.74c.57,0,1.04-.47,1.04-1.04s-.47-1.04-1.04-1.04h-10.74c-.57,0-1.04.47-1.04,1.04s.47,1.04,1.04,1.04Z"/>
  <path class="cls-1" d="m6.58,15.74h21.85c.57,0,1.04-.47,1.04-1.04s-.47-1.04-1.04-1.04H6.58c-.57,0-1.04.47-1.04,1.04s.47,1.04,1.04,1.04Z"/>
  <path class="cls-1" d="m6.58,22.6h21.85c.57,0,1.04-.47,1.04-1.04s-.47-1.04-1.04-1.04H6.58c-.57,0-1.04.47-1.04,1.04s.47,1.04,1.04,1.04Z"/>
  <path class="cls-1" d="m17.5,43.8c3.63,0,6.58-2.95,6.58-6.58s-2.95-6.58-6.58-6.58-6.58,2.95-6.58,6.58,2.95,6.58,6.58,6.58Zm0-11.08c2.48,0,4.5,2.02,4.5,4.5s-2.02,4.5-4.5,4.5-4.5-2.02-4.5-4.5,2.02-4.5,4.5-4.5Z"/>
  <path class="cls-1" d="m33.97,0H1.04C.47,0,0,.47,0,1.04v41.03c0,.57.47,1.04,1.04,1.04h6.17l-3.72,6.33c-.21.36-.19.81.06,1.14.24.34.67.49,1.07.4l5.61-1.26,1.62,5.52c.12.4.46.69.87.74.43.05.82-.16,1.02-.5l3.77-6.4,3.77,6.4c.2.34.59.55,1.02.5.41-.05.75-.34.87-.74l1.62-5.52,5.61,1.26c.4.09.82-.07,1.07-.4.24-.34.27-.78.06-1.14l-3.72-6.33h6.17c.57,0,1.04-.47,1.04-1.04V1.04c0-.57-.47-1.04-1.04-1.04ZM8.74,35.39c-.46-1.19-.47-1.17.64-1.89,1.36-.88,1.67-1.29,2.09-2.88.34-1.26.32-1.25,1.61-1.18,1.66.08,2.14-.08,3.38-1.09,1.04-.85,1.05-.84,2.08,0,1.24,1.01,1.72,1.17,3.38,1.09,1.29-.07,1.28-.07,1.62,1.18.43,1.59.73,2,2.09,2.88,1.11.72,1.09.7.64,1.89-.59,1.55-.6,2.09,0,3.65.46,1.19.47,1.17-.64,1.89-1.36.88-1.66,1.29-2.09,2.88-.34,1.26-.32,1.24-1.61,1.18-1.66-.09-2.15.09-3.38,1.09-.35.29-.79.64-1.04.64s-.69-.36-1.04-.65c-1.24-1.01-1.71-1.17-3.38-1.09-1.3.07-1.28.07-1.62-1.18-.43-1.59-.73-2-2.09-2.88-1.11-.72-1.09-.7-.63-1.89.6-1.57.59-2.1,0-3.65Zm4.42,16.96l-1.22-4.15c-.16-.53-.69-.84-1.23-.72l-4.22.95,2.77-4.71c.07.19.13.41.19.64.61,2.26,1.42,2.84,3.73,2.72,1.12-.06,1.13-.04,1.96.63.16.13.33.27.51.4l-2.5,4.25Zm11.13-4.87c-.53-.12-1.07.2-1.23.72l-1.22,4.15-2.5-4.25c.18-.13.35-.27.51-.4.83-.67.84-.68,1.96-.63,2.28.11,3.12-.43,3.73-2.72.06-.22.12-.45.19-.64l2.78,4.72-4.22-.95Zm8.63-6.44h-4.51c.44-.96.17-1.74-.2-2.73-.41-1.06-.41-1.11,0-2.17.79-2.06.61-3.04-1.45-4.38-.91-.59-.93-.6-1.21-1.67-.61-2.28-1.43-2.84-3.73-2.72-1.12.06-1.14.04-1.96-.63-1.82-1.49-2.87-1.5-4.71,0-.82.67-.84.69-1.96.63-2.28-.11-3.12.43-3.73,2.72-.29,1.07-.3,1.08-1.21,1.67-2.05,1.33-2.24,2.3-1.45,4.37.41,1.06.41,1.11,0,2.17-.38.99-.64,1.77-.2,2.73H2.08V2.08h30.85v38.95Z"/>
</svg>